<svg width="500" height="500" viewBox="0 0 500 500" fill="none" xmlns="http://www.w3.org/2000/svg">
<path d="M499.963 349.456L0.0986328 349.597" stroke="#7F8388" stroke-width="2"/>
<path d="M307.335 395.56H193.614" stroke="#A1A8B0" stroke-width="2"/>
<path d="M482.601 67.1188C482.601 67.0267 482.564 66.9384 482.499 66.8732C482.434 66.8081 482.346 66.7715 482.254 66.7715H18.0132C17.9212 66.7715 17.833 66.8081 17.7679 66.8732C17.7028 66.9384 17.6663 67.0267 17.6663 67.1188V332.373C17.6663 332.465 17.7028 332.553 17.7679 332.618C17.833 332.683 17.9212 332.72 18.0132 332.72H482.254C482.346 332.72 482.434 332.683 482.499 332.618C482.564 332.553 482.601 332.465 482.601 332.373V67.1188Z" stroke="#909192" stroke-width="2"/>
<path d="M258.873 373.64C258.873 371.279 257.936 369.015 256.268 367.345C254.6 365.676 252.338 364.738 249.98 364.738C248.812 364.738 247.655 364.968 246.576 365.416C245.497 365.863 244.517 366.519 243.691 367.345C242.865 368.172 242.21 369.153 241.763 370.233C241.316 371.313 241.086 372.471 241.086 373.64C241.086 376.001 242.023 378.265 243.691 379.934C245.359 381.604 247.621 382.542 249.98 382.542C252.338 382.542 254.6 381.604 256.268 379.934C257.936 378.265 258.873 376.001 258.873 373.64Z" stroke="#7F8388" stroke-width="2"/>
<path d="M499.963 349.456L0.0987401 349.597C0.0730375 255.065 0.0644694 160.644 0.073037 66.3341C0.073037 56.0301 3.37582 50.4343 14.0038 50.3829C105.342 49.9541 196.681 49.8855 288.019 50.177C353.548 50.3829 419.064 49.9583 484.606 50.4343C495.272 50.5115 499.976 54.3449 499.989 64.9577C500.006 160.056 499.997 254.889 499.963 349.456ZM482.601 67.1188C482.601 67.0267 482.564 66.9383 482.499 66.8732C482.434 66.8081 482.346 66.7715 482.254 66.7715H18.0135C17.9214 66.7715 17.8332 66.8081 17.7681 66.8732C17.703 66.9383 17.6665 67.0267 17.6665 67.1188V332.372C17.6665 332.465 17.703 332.553 17.7681 332.618C17.8332 332.683 17.9214 332.72 18.0135 332.72H482.254C482.346 332.72 482.434 332.683 482.499 332.618C482.564 332.553 482.601 332.465 482.601 332.372V67.1188Z" fill="#1E201F"/>
<path d="M482.254 66.7715H18.0132C17.8216 66.7715 17.6663 66.927 17.6663 67.1188V332.373C17.6663 332.564 17.8216 332.72 18.0132 332.72H482.254C482.445 332.72 482.601 332.564 482.601 332.373V67.1188C482.601 66.927 482.445 66.7715 482.254 66.7715Z" fill="#575C5A"/>
<path d="M499.963 349.456C500.023 360.965 500.01 372.225 499.924 383.236C499.847 393.129 492.047 395.226 483.282 395.2C424.5 395.011 365.851 395.131 307.335 395.56H193.614C193.459 395.569 193.164 395.504 192.727 395.367C192.41 395.264 192.106 395.213 191.814 395.213C133.555 395.118 75.296 395.093 17.0367 395.136C8.25929 395.136 0.715572 393.528 0.214371 383.661C-0.0255202 379.004 -0.0640743 367.65 0.0987089 349.597L499.963 349.456ZM258.873 373.64C258.873 371.279 257.936 369.015 256.268 367.345C254.6 365.676 252.338 364.738 249.979 364.738C248.812 364.738 247.655 364.968 246.576 365.416C245.497 365.863 244.517 366.519 243.691 367.345C242.865 368.172 242.21 369.153 241.763 370.233C241.316 371.313 241.086 372.471 241.086 373.64C241.086 376.001 242.023 378.265 243.691 379.934C245.359 381.604 247.621 382.542 249.979 382.542C252.338 382.542 254.6 381.604 256.268 379.934C257.936 378.265 258.873 376.001 258.873 373.64Z" fill="#818886"/>
<path d="M249.98 382.542C254.891 382.542 258.873 378.556 258.873 373.64C258.873 368.723 254.891 364.738 249.98 364.738C245.068 364.738 241.086 368.723 241.086 373.64C241.086 378.556 245.068 382.542 249.98 382.542Z" fill="#1E201F"/>
<path d="M307.335 395.56L313.311 449.138L273.51 450L230.111 449.961L186.507 449.421L193.614 395.56H307.335Z" fill="#323534"/>
</svg>
